<?xml version="1.0" encoding="UTF-8" standalone="no"?>
<!-- Created with Inkscape (http://www.inkscape.org/) -->

<svg
   width="210mm"
   height="210mm"
   viewBox="0 0 210 210"
   version="1.1"
   id="svg1"
   inkscape:export-filename="solo-art-organizer.png"
   inkscape:export-xdpi="67.904381"
   inkscape:export-ydpi="67.904381"
   inkscape:version="1.3.2 (091e20e, 2023-11-25)"
   sodipodi:docname="solo art organizer logo.svg"
   xmlns:inkscape="http://www.inkscape.org/namespaces/inkscape"
   xmlns:sodipodi="http://sodipodi.sourceforge.net/DTD/sodipodi-0.dtd"
   xmlns="http://www.w3.org/2000/svg"
   xmlns:svg="http://www.w3.org/2000/svg">
  <sodipodi:namedview
     id="namedview1"
     pagecolor="#ffffff"
     bordercolor="#000000"
     borderopacity="0.25"
     inkscape:showpageshadow="2"
     inkscape:pageopacity="0.0"
     inkscape:pagecheckerboard="0"
     inkscape:deskcolor="#d1d1d1"
     inkscape:document-units="mm"
     inkscape:zoom="0.52738496"
     inkscape:cx="396.29496"
     inkscape:cy="409.56799"
     inkscape:window-width="1344"
     inkscape:window-height="723"
     inkscape:window-x="38"
     inkscape:window-y="23"
     inkscape:window-maximized="0"
     inkscape:current-layer="layer1" />
  <defs
     id="defs1" />
  <g
     inkscape:label="Layer 1"
     inkscape:groupmode="layer"
     id="layer1">
    <g
       id="g2"
       transform="translate(-628.84859,-1.93389)">
      <path
         style="fill:#1a1a1a;fill-rule:evenodd;stroke:none;stroke-width:6.526;stroke-linecap:square"
         d="m 452.30348,137.28741 c -0.0365,0.0122 -0.16751,-0.16315 -0.57604,-0.50433 -0.37215,-0.29489 -0.5981,-0.45775 -1.19033,-0.89149 -0.70804,-0.51817 -2.46633,-1.80309 -3.82693,-2.87655 0,0 0,0 0,0 -2.52841,-1.99392 -6.55314,-5.39529 -9.94364,-9.8422 -2.7822,-3.64281 -5.66778,-8.79377 -6.25448,-14.85587 -0.27412,-2.91434 -0.004,-6.01392 0.88154,-9.100317 0.99496,-3.456314 2.69077,-6.796232 4.92896,-9.981845 4.135,-5.897493 9.54052,-11.581977 16.23863,-16.407585 5.15235,-3.710987 10.98783,-6.878505 17.39622,-9.373383 4.71401,-1.835737 9.70134,-3.301135 14.90882,-4.35543 2.89699,-0.585976 5.82583,-1.009313 8.8067,-1.366546 2.68536,-0.319511 5.36574,-0.333189 8.05084,-0.273953 4.31611,0.09111 8.68655,0.478757 13.07216,1.173381 10.69264,1.68178 21.78192,5.270107 31.17137,12.030982 1.32728,0.956022 2.64951,1.937798 3.95911,2.947391 8.00992,6.174988 15.13059,13.074099 20.40792,21.273557 6.61824,10.323718 9.31084,22.368458 8.53506,33.619538 -0.58643,8.65382 -2.58856,16.85815 -6.58349,23.89163 -3.07796,5.40067 -7.32112,9.85526 -12.12001,13.03653 -3.92189,2.59492 -8.1706,4.36926 -12.34472,5.51426 -1.55263,0.42632 -3.10391,0.76851 -4.62792,1.0532 -0.94951,0.17838 -1.85083,0.29522 -2.67758,0.49769 -1.03616,0.2387 -2.02568,0.19596 -2.8903,0.1433 -1.52236,-0.0732 -3.01079,-0.26607 -4.43748,-0.50666 -4.21033,-0.70779 -8.10307,-1.8707 -11.60199,-3.31641 -4.63116,-1.90761 -8.43986,-4.28916 -11.42674,-7.15342 -4.00207,-3.83875 -5.87892,-8.25801 -6.46057,-11.88821 0,0 0,-10e-6 0,-10e-6 -1.02447,-6.45746 -1.51512,-9.97912 -1.37568,-10.00402 0.13943,-0.0249 0.89799,3.44892 2.17184,9.86185 0,0 0,0 0,0 0.68461,3.45955 2.66743,7.63892 6.49228,11.14846 2.91948,2.67996 6.62312,4.87615 11.15309,6.65994 3.4255,1.34443 7.21886,2.41082 11.31363,3.03867 1.38789,0.21206 2.81316,0.37772 4.24274,0.42562 0.87388,0.0186 1.70328,0.0648 2.38968,-0.12709 0.96168,-0.2447 1.86804,-0.37456 2.76427,-0.55307 1.4816,-0.29632 2.97985,-0.64545 4.46706,-1.07299 3.99923,-1.15078 8.04567,-2.88844 11.73426,-5.3861 4.509,-3.04715 8.48848,-7.30487 11.36032,-12.43067 3.76177,-6.6898 5.60634,-14.57716 6.15741,-22.98582 0.69283,-10.77782 -1.93318,-22.32502 -8.2776,-32.152372 -5.06824,-7.883211 -12.00631,-14.561156 -19.87239,-20.634114 -1.286,-0.992843 -2.5859,-1.961238 -3.892,-2.907106 -8.95215,-6.485823 -19.69052,-9.955928 -30.11132,-11.648434 -4.27678,-0.689777 -8.53848,-1.082604 -12.74682,-1.187909 -2.64675,-0.06362 -5.21572,-0.06664 -7.72437,0.224911 -2.94671,0.340128 -5.81581,0.739069 -8.63136,1.29406 -5.08814,1.00205 -9.96147,2.400597 -14.5685,4.158518 -6.26068,2.389579 -11.96395,5.423084 -17.00323,8.984817 -6.54784,4.626669 -11.86748,10.095624 -15.9658,15.785781 -2.18057,3.033367 -3.84026,6.172704 -4.8183,9.41011 -0.873,2.881428 -1.17739,5.781898 -0.96703,8.512358 0.42077,5.67547 3.09813,10.69136 5.69608,14.29997 3.16716,4.39108 7.06091,7.92035 9.45664,10.00151 0,0 0,0 0,0 1.20972,1.05051 2.4269,2.04545 3.63663,3.09596 0.50316,0.43803 0.81727,0.72483 1.10202,1.02741 0.34829,0.35502 0.45788,0.66032 0.42134,0.6725 z"
         id="path2-1"
         sodipodi:nodetypes="cssssssc"
         transform="translate(235.28715,3.4903306)" />
      <path
         style="fill:#1a1a1a;fill-rule:evenodd;stroke:none;stroke-width:6.526;stroke-linecap:square"
         d="m 452.77362,136.82032 c -0.0454,0.0151 -0.17755,-0.14314 -0.58953,-0.47858 -0.2876,-0.21892 -0.68303,-0.5016 -1.18566,-0.86023 -0.72894,-0.51957 -2.42347,-1.731 -3.79614,-2.79739 -2.50881,-1.94786 -6.48856,-5.27508 -9.84145,-9.66471 -2.76307,-3.61027 -5.60297,-8.72641 -6.15915,-14.76692 -0.53395,-6.27291 1.56691,-13.005526 5.88655,-19.141736 7.43597,-10.628043 18.80698,-20.356543 33.70306,-26.71289 7.27523,-3.112336 15.32817,-5.565967 23.84642,-6.593848 2.73313,-0.322391 5.42796,-0.223983 8.08867,-0.06991 0,0 1e-5,1e-6 1e-5,1e-6 4.30869,0.239967 8.64957,0.792072 12.99605,1.635138 10.3986,2.004659 21.07127,5.741604 30.31932,12.197604 0.25331,0.176831 0.50527,0.355512 0.75587,0.536054 9.29886,6.692412 17.8093,14.022789 23.80156,23.327693 2.9753,4.639624 5.16807,9.663234 6.47984,14.831604 1.5194,6.01309 1.85896,12.13974 1.44614,17.97423 -0.58864,8.61595 -2.49019,16.74673 -6.38014,23.75604 -2.94087,5.27899 -7.0041,9.60802 -11.64615,12.66114 -3.77045,2.47114 -7.85819,4.1074 -11.82711,5.14719 -1.48976,0.39085 -2.97796,0.70234 -4.41724,0.97683 -0.94139,0.18509 -1.76845,0.28017 -2.48268,0.52738 -0.82589,0.25618 -1.57185,0.26094 -2.16349,0.24814 -1.16199,0.0108 -2.2988,-0.0743 -3.39032,-0.20369 -3.28592,-0.38622 -6.35077,-1.19424 -9.11884,-2.31101 0,0 -10e-6,0 -10e-6,0 -3.71379,-1.49179 -6.80013,-3.56553 -9.12386,-6.0665 -3.31441,-3.58774 -4.68809,-7.7673 -5.09976,-11.19275 -0.87425,-7.2964 -1.26448,-11.30306 -1.07811,-11.32968 0.18636,-0.0266 0.93349,3.92906 2.13697,11.17844 0.53878,3.22846 1.98116,7.10785 5.13207,10.30407 2.2148,2.26117 5.14681,4.102 8.68298,5.44095 0,0 0,10e-6 10e-6,10e-6 2.64569,0.99704 5.56413,1.69771 8.68174,2.00339 1.03781,0.1007 2.09238,0.16087 3.13847,0.12996 0.6317,-0.0359 1.17117,-0.0169 1.52073,-0.16787 0.9744,-0.33791 1.89678,-0.47531 2.74699,-0.64822 1.40938,-0.29474 2.84607,-0.61987 4.25793,-1.01566 3.76463,-1.05678 7.60639,-2.65566 11.08017,-5.00834 4.27645,-2.88561 8.01078,-6.97438 10.70455,-11.92176 3.60723,-6.59742 5.31301,-14.35135 5.85494,-22.69408 0.3492,-5.59577 -0.002,-11.42375 -1.4681,-17.06811 -1.25343,-4.84916 -3.34305,-9.574763 -6.16436,-13.945563 -5.66899,-8.821689 -13.92637,-15.850837 -23.07564,-22.482076 -0.23781,-0.172203 -0.47704,-0.342648 -0.71764,-0.511348 -8.78104,-6.15684 -19.06804,-9.754785 -29.15741,-11.755532 -4.22,-0.831685 -8.42628,-1.38388 -12.59439,-1.634422 0,0 -2e-5,-1e-6 -2e-5,-1e-6 -2.63025,-0.152088 -5.15168,-0.26904 -7.58262,0.01611 -8.19361,0.938222 -16.01302,3.267033 -23.12601,6.232108 -14.48186,6.052511 -25.60953,15.310604 -32.95785,25.490076 -4.1385,5.76776 -6.26723,11.952968 -5.8562,17.716928 0.35467,5.55982 2.93558,10.50381 5.46819,14.0678 3.07501,4.31772 6.89097,7.8017 9.2356,9.85787 1.48022,1.29752 2.69932,2.30483 3.56091,3.0693 0.49013,0.43465 0.80181,0.72631 1.07684,1.02902 0.33792,0.3537 0.44274,0.67261 0.3973,0.68776 z"
         id="path2-7-20"
         sodipodi:nodetypes="cssssssc"
         transform="matrix(1.067101,0,0,1.0740813,202.36365,-8.3317994)" />
      <path
         style="fill:#1a1a1a;fill-rule:evenodd;stroke:none;stroke-width:6.526;stroke-linecap:square"
         d="m 450.67891,138.66191 c -0.0361,0.012 -0.16922,-0.17154 -0.57085,-0.53423 -0.37797,-0.32663 -0.57909,-0.48614 -1.17231,-0.9679 -0.73415,-0.59588 -2.38861,-1.94173 -3.75534,-3.14332 0,0 -10e-6,0 -10e-6,0 -2.50232,-2.19919 -6.42434,-5.89863 -9.71013,-10.64127 -2.71445,-3.91196 -5.4911,-9.34226 -6.00527,-15.63212 -0.23838,-2.99524 0.0515,-6.18283 0.96069,-9.347071 1.00463,-3.486283 2.70415,-6.86671 4.95992,-10.075715 4.14838,-5.911707 9.55882,-11.587489 16.24055,-16.397866 0,1e-6 10e-6,-7e-6 10e-6,-7e-6 5.1604,-3.714163 10.99679,-6.876626 17.39398,-9.364763 4.71815,-1.835576 9.70469,-3.297981 14.90532,-4.349122 2.89729,-0.585067 5.82603,-1.007261 8.80448,-1.363206 2.68366,-0.3185 5.36306,-0.331052 8.04581,-0.271044 0,0 1e-5,0 1e-5,0 4.31776,0.0926 8.68622,0.482047 13.06631,1.177352 8.93032,1.408113 18.09338,4.138913 26.31096,8.904379 1.66467,0.965355 3.27848,2.007256 4.83497,3.129051 9.0636,6.528013 17.58464,13.18894 23.69558,22.050372 2.96882,4.321882 5.16057,9.05853 6.45897,13.95578 1.54444,5.85246 1.84707,11.84505 1.44796,17.52026 -0.58525,8.53661 -2.12852,16.51673 -5.37411,23.67765 -2.30856,5.09448 -5.50027,9.51714 -9.48532,12.81991 -2.99851,2.47658 -6.3745,4.24122 -9.78527,5.34618 -1.26741,0.41036 -2.54018,0.73267 -3.79281,0.99332 -0.83727,0.17467 -1.63656,0.2962 -2.37766,0.47646 -1.91313,0.46084 -3.84378,0.56681 -5.65391,0.52903 -2.985,-0.0545 -5.8072,-0.59465 -8.34091,-1.57925 0,0 -10e-6,-1e-5 -10e-6,-1e-5 -3.46283,-1.34831 -6.23413,-3.55244 -8.17547,-6.01167 -3.31843,-4.22697 -4.48836,-9.25291 -4.95432,-12.5749 -0.82736,-5.85814 -1.21424,-9.04517 -1.08405,-9.06622 0.13019,-0.0211 0.76747,3.12548 1.82855,8.94584 0.59301,3.22772 1.88497,8.08821 5.11188,11.96683 1.8714,2.26224 4.5132,4.26555 7.75876,5.45933 0,0 1e-5,0 1e-5,0 2.38671,0.87997 5.04903,1.33612 7.8724,1.3463 1.7331,0.002 3.53439,-0.11944 5.24949,-0.56564 0.82706,-0.21177 1.64404,-0.34941 2.4212,-0.52263 1.20279,-0.26846 2.41426,-0.59232 3.60704,-0.99667 3.21152,-1.0881 6.36956,-2.78908 9.14984,-5.1409 3.71084,-3.12744 6.676,-7.35188 8.85116,-12.234 3.06996,-6.89167 4.48607,-14.63077 5.02867,-23.01194 0.34583,-5.49888 0.0328,-11.2554 -1.46628,-16.79959 -1.24706,-4.63432 -3.34938,-9.127284 -6.18523,-13.231924 -5.83604,-8.481763 -14.17295,-14.923256 -23.18162,-21.447438 -1.48849,-1.077357 -3.03572,-2.078388 -4.63531,-3.006572 -7.89437,-4.580801 -16.7891,-7.227927 -25.50145,-8.639415 -4.2756,-0.688025 -8.53924,-1.079965 -12.75268,-1.183938 0,0 -1e-5,0 -1e-5,0 -2.64569,-0.06277 -5.2173,-0.06494 -7.72937,0.227821 -2.94516,0.340949 -5.81576,0.740988 -8.63358,1.297401 -5.08429,1.003066 -9.95916,2.402911 -14.572,4.164824 -6.25217,2.388723 -11.95784,5.423182 -17.00547,8.993439 0,0 0,8e-6 0,8e-6 -6.53248,4.619239 -11.85535,10.086348 -15.96388,15.795494 -2.19476,3.054695 -3.85737,6.239044 -4.84554,9.513554 -0.89712,2.964046 -1.2197,5.962576 -1.04137,8.785866 0.36083,5.92713 2.94141,11.22658 5.47954,15.10239 3.07234,4.6838 6.85866,8.50147 9.22439,10.78113 0,0 10e-6,0 10e-6,0 1.47544,1.42135 2.69239,2.5233 3.55472,3.34944 0.49205,0.47123 0.79872,0.77727 1.07704,1.09675 0.33957,0.37653 0.44746,0.68213 0.41132,0.69418 z"
         id="path2-7-2-4"
         sodipodi:nodetypes="cssssssc"
         transform="matrix(1.1174268,0,0,1.1481626,180.52676,-21.804699)" />
      <g
         id="path4-4"
         transform="translate(235.28715,1.9028306)"
         style="fill:#1a1a1a;stroke-width:0.6;stroke-dasharray:none">
        <path
           style="color:#000000;fill:#1a1a1a;fill-rule:evenodd;stroke-width:0.6;stroke-linecap:square;stroke-dasharray:none"
           d="m 555.01522,42.580863 c -11.41148,1.630211 -25.10893,13.379699 -30.14493,19.656165 -14.51648,19.560985 -15.8985,51.298722 -35.3472,60.049562 -8.34015,3.7526 -11.13035,3.95285 -11.13035,3.95285 0,0 2.01037,1.09001 2.29114,3.16505 0.16157,1.19379 0.53663,2.37451 0.81231,2.53991 0.62709,0.37625 11.08821,-3.18154 15.05076,-6.77271 19.41803,-15.3347 15.54765,-38.496814 31.23686,-60.828847 3.95716,-5.685722 8.28528,-9.985717 12.46125,-13.202295 7.98347,-6.325018 15.01204,-7.978885 14.87506,-8.494055 -8.6e-4,-0.0029 -0.001,-0.0032 -0.001,-0.0031 2e-5,8e-5 -9e-5,2.92e-4 -10e-4,-0.0026 -0.0112,-0.03103 -0.0458,-0.05089 -0.10283,-0.05994 z"
           id="path24-5" />
      </g>
      <path
         style="fill:#1a1a1a;fill-rule:evenodd;stroke:none;stroke-width:6.526;stroke-linecap:square"
         d="m 712.42888,131.82627 c 0,0 -4.34567,-5.85334 -10.9085,-2.0398 -6.56283,3.81354 -10.1103,11.44061 -10.1103,11.44061 0,0 6.38545,-3.72485 9.04607,-3.28141 2.6606,0.44343 9.84423,1.95112 11.79534,-0.70949 1.95112,-2.66061 0.17739,-5.40991 0.17739,-5.40991 z"
         id="path18-7"
         sodipodi:nodetypes="cscssc" />
      <text
         xml:space="preserve"
         style="font-weight:bold;font-size:19.6377px;line-height:1;font-family:Helvetica;-inkscape-font-specification:'Helvetica Bold';text-align:end;word-spacing:0px;text-anchor:end;fill:#1a1a1a;fill-rule:evenodd;stroke:none;stroke-width:2.52275;stroke-linecap:square"
         x="737.72351"
         y="156.80244"
         id="text23-5"
         transform="scale(0.99433389,1.0056984)"><tspan
           sodipodi:role="line"
           id="tspan23-5"
           style="font-size:19.6377px;fill:#000000;stroke:none;stroke-width:2.52275"
           x="737.72351"
           y="156.80244">Solo Art</tspan><tspan
           sodipodi:role="line"
           style="font-size:19.6377px;fill:#000000;stroke:none;stroke-width:2.52275"
           x="737.72351"
           y="176.44014"
           id="tspan24-6">Organizer</tspan></text>
      <path
         style="fill:#1a1a1a;fill-rule:evenodd;stroke:none;stroke-width:6.526;stroke-linecap:square"
         d="m 758.71177,136.76927 c 0,0 1.37964,15.67779 5.14231,21.44721 3.76266,5.76943 13.42019,13.16934 24.45734,10.53547 11.03717,-2.63386 11.28802,-3.3864 11.28802,-3.3864 0,0 -18.57208,3.99259 -27.15579,-3.36488 -11.41341,-9.78294 -13.73188,-25.2314 -13.73188,-25.2314 z"
         id="path1"
         sodipodi:nodetypes="csscsc" />
      <path
         style="fill:#1a1a1a;fill-rule:evenodd;stroke:none;stroke-width:6.526;stroke-linecap:square"
         d="m 748.83688,140.23008 c 0,0 1.37964,15.67779 5.14231,21.44721 3.76266,5.76943 13.42019,13.16934 24.45734,10.53547 11.03717,-2.63386 11.28802,-3.3864 11.28802,-3.3864 0,0 -15.09104,-0.13192 -26.04851,-2.91514 -13.48103,-3.42422 -14.83916,-25.68114 -14.83916,-25.68114 z"
         id="path1-3"
         sodipodi:nodetypes="csscsc" />
      <path
         style="fill:#1a1a1a;fill-rule:evenodd;stroke:none;stroke-width:7.1104;stroke-linecap:square"
         d="m 737.74785,142.28957 c 0,0 1.63779,15.67779 6.10452,21.44721 4.46672,5.76943 19.19231,13.92187 32.29469,11.288 13.10241,-2.63386 10.13922,-4.13893 10.13922,-4.13893 0,0 -23.26797,0.22957 -35.00553,-4.26435 -11.79314,-4.51521 -13.5329,-24.33193 -13.5329,-24.33193 z"
         id="path1-3-0"
         sodipodi:nodetypes="csscsc" />
    </g>
  </g>
</svg>
